<?xml version="1.0" standalone="no"?><!DOCTYPE svg PUBLIC "-//W3C//DTD SVG 1.1//EN" "http://www.w3.org/Graphics/SVG/1.1/DTD/svg11.dtd"><svg t="1732792875880" class="icon" viewBox="0 0 1024 1024" version="1.1" xmlns="http://www.w3.org/2000/svg" p-id="4508" xmlns:xlink="http://www.w3.org/1999/xlink" width="200" height="200"><path d="M653.9776 674.816m-212.7872 0a212.7872 212.7872 0 1 0 425.5744 0 212.7872 212.7872 0 1 0-425.5744 0Z" fill="#FF8080" p-id="4509"></path><path d="M710.6048 150.528H313.3952c-98.816 0-179.2 80.384-179.2 179.2v397.1584c0 98.816 80.384 179.2 179.2 179.2h397.2096c98.816 0 179.2-80.384 179.2-179.2V329.728c0-98.7648-80.384-179.2-179.2-179.2z m128 576.4096c0 70.6048-57.3952 128-128 128H313.3952c-70.6048 0-128-57.3952-128-128V329.728c0-70.6048 57.3952-128 128-128h397.2096c70.6048 0 128 57.3952 128 128v397.2096z" fill="#475ee5" p-id="4510"></path><path d="M672.5632 379.0336H348.672c-14.1312 0-25.6 11.4688-25.6 25.6s11.4688 25.6 25.6 25.6H486.4v244.5824c0 14.1312 11.4688 25.6 25.6 25.6s25.6-11.4688 25.6-25.6V430.2336h135.0144c14.1312 0 25.6-11.4688 25.6-25.6s-11.4688-25.6-25.6512-25.6z" fill="#475ee5" p-id="4511"></path></svg>